<?xml version="1.0" encoding="utf-8"?>
<!-- Generator: Adobe Illustrator 19.0.0, SVG Export Plug-In . SVG Version: 6.00 Build 0)  -->
<svg version="1.1" id="Capa_1" xmlns="http://www.w3.org/2000/svg" xmlns:xlink="http://www.w3.org/1999/xlink" x="0px" y="0px"
	 viewBox="-279 81 400 400" style="enable-background:new -279 81 400 400;" xml:space="preserve">
<style type="text/css">
	.st0{fill:#FFFFFF;}
</style>
<g>
	<g>
		<g>
			<path class="st0" d="M87.7,106h-333.4c-18.4,0-33.3,14.9-33.3,33.3v217.3c0,18.4,14.9,33.3,33.3,33.3h107.4l-20.4,45
				c-2.1,4.6-1.7,10,1.1,14.3c2.8,4.3,7.5,6.9,12.6,6.9h132c0,0,0,0,0,0c8.3,0,15-6.7,15-15c0-2.5-0.6-4.8-1.7-6.9l-20.1-44.2H87.7
				c18.4,0,33.3-14.9,33.3-33.3V139.3C121,120.9,106.1,106,87.7,106z M91,356.6c0,1.8-1.5,3.3-3.3,3.3H-43h-72h-130.7
				c-1.8,0-3.3-1.5-3.3-3.3V139.3c0-1.8,1.5-3.3,3.3-3.3H87.7c1.8,0,3.3,1.5,3.3,3.3L91,356.6L91,356.6z"/>
			<path class="st0" d="M-206.2,243.8c9.4,1.1,18.4-2.4,24.6-8.6l81.9,29.4c0.8,14.4,12,26.6,26.8,28.2
				c16.6,1.9,31.6-10.1,33.4-26.6c0.1-1.2,0.2-2.3,0.2-3.5l69.1-50.4c3.4,2,7.3,3.3,11.5,3.7c16.6,1.9,31.6-10.1,33.4-26.6
				c1.9-16.6-10.1-31.6-26.6-33.4c-16.6-1.9-31.6,10.1-33.4,26.6c-0.6,5.3,0.2,10.4,2.2,15l-63,46c-4.8-5.8-11.8-9.9-19.9-10.8
				c-11.5-1.3-22.2,4.1-28.3,13l-78.4-28.2c0-0.2,0.1-0.3,0.1-0.5c1.9-16.6-10.1-31.6-26.6-33.4c-16.6-1.9-31.6,10.1-33.4,26.6
				C-234.7,226.9-222.7,241.9-206.2,243.8z M34.1,184.8c0.7-5.9,6-10.1,11.9-9.5c5.9,0.7,10.1,6,9.5,11.9c-0.7,5.9-6,10.1-11.9,9.5
				C37.7,196,33.5,190.7,34.1,184.8z M-80.1,261.6c0.7-5.9,6-10.1,11.9-9.5c5.9,0.7,10.1,6,9.5,11.9c-0.7,5.9-6,10.1-11.9,9.5
				C-76.5,272.8-80.8,267.5-80.1,261.6z M-213.4,212.5c0.7-5.9,6-10.1,11.9-9.5c5.9,0.7,10.1,6,9.5,11.9c-0.7,5.9-6,10.1-11.9,9.5
				C-209.9,223.7-214.1,218.4-213.4,212.5z"/>
			<path class="st0" d="M44.8,232.5c-1.5,0-3-0.1-4.5-0.3c-3.2-0.4-6.3-1.1-9.3-2.2l-60.8,44.4c-2.6,19.9-19.5,34.9-39.6,34.9
				c-1.5,0-3-0.1-4.5-0.3c-17.1-1.9-30.7-14.4-34.5-30.7l-71.2-25.6c-6.7,4.8-14.8,7.4-23.2,7.4c0,0,0,0,0,0c-1.5,0-3-0.1-4.5-0.3
				c-10.4-1.2-19.4-6.3-25.7-13.6v98.4H75V218.7C67.6,227.2,56.8,232.5,44.8,232.5z"/>
		</g>
	</g>
</g>
</svg>
