<?xml version="1.0" encoding="utf-8"?>
<!-- Generator: Adobe Illustrator 19.0.0, SVG Export Plug-In . SVG Version: 6.00 Build 0)  -->
<svg version="1.1" id="Capa_1" xmlns="http://www.w3.org/2000/svg" xmlns:xlink="http://www.w3.org/1999/xlink" x="0px" y="0px"
	 viewBox="-225 27.7 507.3 507.3" style="enable-background:new -225 27.7 507.3 507.3;" xml:space="preserve">
<style type="text/css">
	.st0{fill:#FFFFFF;}
</style>
<g>
	<path class="st0" d="M28.7,122.8c17.5,0,31.7-14.2,31.7-31.7c0-17.5-14.2-31.7-31.7-31.7c-17.5,0-31.7,14.2-31.7,31.7
		C-3.1,108.6,11.2,122.8,28.7,122.8z"/>
	<path class="st0" d="M-89.4,375.8h236.1c4.4,0,8-3.6,8-8v-43.6c0-4.4-3.6-8-8-8H67c0-0.4,0.1-0.7,0.1-1.1v-86.7c0-0.2,0-0.5,0-0.7
		v-75l28.8-30.2c4.5-4.7,7.6-12.5,7.6-19V40.9c0-7.3-5.9-13.2-13.2-13.2s-13.2,5.9-13.2,13.2v62.3c-0.1,0.3-0.3,1-0.5,1.3l-25,26.1
		H5.7l-25-26.1c-0.2-0.3-0.4-0.9-0.5-1.3V40.9c0-7.3-5.9-13.2-13.2-13.2s-13.2,5.9-13.2,13.2v62.6c0,6.5,3.1,14.3,7.6,19l28.8,30.2
		v75c0,0.6,0.1,1.1,0.2,1.7V315c0,0.4,0,0.7,0.1,1.1h-79.9c-4.4,0-8,3.6-8,8v43.6C-97.4,372.2-93.8,375.8-89.4,375.8z M22.5,315v-80
		H35v80c0,0.4,0,0.7,0.1,1.1H22.5C22.5,315.8,22.5,315.4,22.5,315z"/>
	<path class="st0" d="M139.9,422.5c0,15.7,12.8,28.5,28.5,28.5c15.7,0,28.5-12.8,28.5-28.5c0-15.7-12.8-28.5-28.5-28.5
		C152.6,394,139.9,406.8,139.9,422.5z"/>
	<path class="st0" d="M228.1,512.6l-26.9-51.6c-2.1-4-6.1-6.4-10.6-6.4c-0.2,0-42.6,0-42.8,0c-4.2,0.3-7.9,2.7-9.9,6.4L111,512.6
		c-3.1,5.9-0.8,13.1,5.1,16.2c1.5,0.8,3,1.2,4.7,1.3c0.3,0,0.6,0,0.9,0c4.5,0,8.6-2.5,10.6-6.4l7.8-14.9v20.3c0,3.3,2.6,5.9,5.9,5.9
		h46.5c3.3,0,5.9-2.6,5.9-5.9v-21.7l8.5,16.3c2.1,4,6.1,6.4,10.6,6.4c0.3,0,0.6,0,0.9,0c1.6-0.1,3.2-0.6,4.7-1.3
		C228.8,525.7,231.1,518.5,228.1,512.6z"/>
	<path class="st0" d="M-0.9,422.5c0,15.7,12.8,28.5,28.5,28.5c15.7,0,28.5-12.8,28.5-28.5c0-15.7-12.8-28.5-28.5-28.5
		C11.8,394-0.9,406.8-0.9,422.5z"/>
	<path class="st0" d="M60.4,461.1c-2.1-4-6.1-6.4-10.6-6.4c-0.2,0-42.6,0-42.8,0c-4.2,0.3-7.9,2.7-9.9,6.4l-26.9,51.6
		c-3.1,5.9-0.8,13.1,5.1,16.2c1.5,0.8,3,1.2,4.7,1.3c0.3,0,0.6,0,0.9,0c4.5,0,8.6-2.5,10.6-6.4l7.8-14.9v20.3c0,3.3,2.6,5.9,5.9,5.9
		h46.5c3.3,0,5.9-2.6,5.9-5.9v-21.7l8.5,16.3c2.1,4,6.1,6.4,10.6,6.4c0.3,0,0.6,0,0.9,0c1.6-0.1,3.2-0.6,4.7-1.3
		c5.9-3.1,8.1-10.3,5.1-16.2L60.4,461.1z"/>
	<path class="st0" d="M-113.4,451c15.7,0,28.5-12.8,28.5-28.5c0-15.7-12.8-28.5-28.5-28.5c-15.7,0-28.5,12.8-28.5,28.5
		S-129.1,451-113.4,451z"/>
	<path class="st0" d="M-80.5,461.1c-2.1-4-6.1-6.4-10.6-6.4c-0.2,0-42.9,0-42.9,0l0,0c-4.1,0.3-7.8,2.7-9.7,6.4l-26.9,51.6
		c-3.1,5.9-0.8,13.1,5.1,16.2c1.5,0.8,3,1.2,4.7,1.3c0.3,0,0.6,0,0.9,0c4.5,0,8.6-2.5,10.6-6.4l7.8-14.9v20.3c0,3.3,2.6,5.9,5.9,5.9
		h46.5c3.3,0,5.9-2.6,5.9-5.9v-21.7l8.5,16.3c2.1,4,6.1,6.4,10.6,6.4c0.3,0,0.6,0,0.9,0c1.6-0.1,3.2-0.6,4.7-1.3
		c2.8-1.5,4.9-4,5.9-7c1-3.1,0.7-6.3-0.8-9.1L-80.5,461.1z"/>
</g>
</svg>
