<?xml version="1.0" encoding="utf-8"?>
<!-- Generator: Adobe Illustrator 19.0.0, SVG Export Plug-In . SVG Version: 6.00 Build 0)  -->
<svg version="1.1" id="Capa_1" xmlns="http://www.w3.org/2000/svg" xmlns:xlink="http://www.w3.org/1999/xlink" x="0px" y="0px"
	 viewBox="-416 218.5 125.5 125.5" style="enable-background:new -416 218.5 125.5 125.5;" xml:space="preserve">
<style type="text/css">
	.st0{fill:#FFFFFF;}
</style>
<g>
	<g>
		<circle class="st0" cx="-367.6" cy="244.3" r="11.4"/>
		<circle class="st0" cx="-329.2" cy="243" r="11.4"/>
		<path class="st0" d="M-312.1,260.6c-1-4.6-5.6-6.8-9.5-6.9l0,0c0,0-1.4,0-2.6,0.2c-1.2,0.2-2.3,0.8-2.3,0.8
			c-2.9,1.4-5.6,4.3-6,7.8c-0.1,0.2-0.1,0.4-0.1,0.6c-0.8,5.7-1.4,9.3-3.1,11.3c-1.7,2-5.4,3.2-12.3,4.1c-0.9,0.1-1.7,0.5-2.3,1
			c-5.8-0.9-8.9-2.1-10.5-3.9c-1.7-1.9-2.3-5.5-3.1-11.3c0-0.2-0.1-0.4-0.1-0.6c-0.4-3.5-3.1-6.4-6-7.8c0,0-1.1-0.6-2.3-0.8
			c-1.2-0.2-2.6-0.2-2.6-0.2l0,0c-3.9,0.1-8.6,2.3-9.5,6.9l-5.3,24.5c-0.7,3.3,0.8,6.2,3.1,8.2l0,37.8c0,3.3,2.7,6,6,6c0,0,0,0,0,0
			c3.3,0,6-2.7,6-6l0-35.8c2.5-1,4.6-2.9,5.2-5.9l2-9.3c3.2,3.7,8.4,5.8,17.7,7.1c0.2,0,0.4,0,0.6,0c1.3,0,2.5-0.6,3.3-1.5
			c8.7-1.3,13.6-3.4,16.7-6.9l2,9.3c0.6,3,2.7,4.9,5.2,5.9l0,37.4c0,3.3,2.7,6,6,6h0c3.3,0,6-2.7,6-6l0-39.5c2.4-2,3.8-5,3.1-8.2
			L-312.1,260.6z"/>
		<path class="st0" d="M-302.7,223.7c-6.8,0-12.3,4.6-12.3,10.4c0,2.3,1.1,4.3,1.7,5.3l-1.8,7.7l9.1-2.8c1,0.2,2.4,0.2,3.2,0.2
			c6.8,0,12.3-4.6,12.3-10.4C-290.5,228.3-296,223.7-302.7,223.7z M-302.7,241.6c-0.9,0-2.3-0.1-3-0.2l-0.3-0.1l-5.3,1.6l1-4.3
			l-0.4-0.5c0,0-1.5-2-1.5-4.1c0-4.2,4.3-7.6,9.6-7.6c5.3,0,9.6,3.4,9.6,7.6C-293.2,238.2-297.5,241.6-302.7,241.6z"/>
		<path class="st0" d="M-385.4,241.5c0.6-0.9,1.7-3,1.7-5.3c0-5.7-5.5-10.3-12.3-10.3c-0.8,0-1.6,0.1-2.4,0.2c-1.6-0.7-3.4-1-5.3-1
			c-6.8,0-12.3,4.6-12.3,10.3c0,5.7,5.5,10.4,12.3,10.4c0.6,0,1.6,0,2.5-0.2c1.6,0.6,3.3,1,5.2,1c0.8,0,2.2-0.1,3.2-0.2l9.1,2.8
			L-385.4,241.5z M-413.3,235.4c0-4.2,4.3-7.6,9.6-7.6c0.2,0,0.5,0,0.7,0c-3.1,1.9-5.2,5-5.2,8.4c0,2.5,1.1,4.9,2.9,6.7
			C-409.8,242.3-413.3,239.2-413.3,235.4z M-387.4,245.2l-5.3-1.6l-0.3,0.1c-0.7,0.1-2.2,0.2-3,0.2c-5.3,0-9.6-3.4-9.6-7.6
			c0-4.2,4.3-7.6,9.6-7.6c5.3,0,9.6,3.4,9.6,7.6c0,2.1-1.5,4.1-1.5,4.1l-0.4,0.5L-387.4,245.2z"/>
	</g>
</g>
</svg>
